{
  "accessors" : [ {
    "bufferView" : 0,
    "byteOffset" : 0,
    "componentType" : 5126,
    "count" : 2,
    "type" : "MAT4"
  }, {
    "bufferView" : 1,
    "byteOffset" : 0,
    "componentType" : 5126,
    "count" : 15,
    "type" : "VEC3"
  }, {
    "bufferView" : 2,
    "byteOffset" : 0,
    "componentType" : 5126,
    "count" : 15,
    "type" : "VEC4"
  }, {
    "bufferView" : 3,
    "byteOffset" : 0,
    "componentType" : 5126,
    "count" : 15,
    "type" : "SCALAR",
    "max" : [ 0.46666667 ],
    "min" : [ 0.0 ]
  }, {
    "bufferView" : 4,
    "byteOffset" : 0,
    "componentType" : 5126,
    "count" : 15,
    "type" : "VEC3"
  }, {
    "bufferView" : 5,
    "byteOffset" : 0,
    "componentType" : 5126,
    "count" : 15,
    "type" : "VEC4"
  }, {
    "bufferView" : 6,
    "byteOffset" : 0,
    "componentType" : 5126,
    "count" : 61,
    "type" : "VEC3"
  }, {
    "bufferView" : 7,
    "byteOffset" : 0,
    "componentType" : 5126,
    "count" : 61,
    "type" : "VEC4"
  }, {
    "bufferView" : 8,
    "byteOffset" : 0,
    "componentType" : 5126,
    "count" : 61,
    "type" : "SCALAR",
    "max" : [ 2.0 ],
    "min" : [ 0.0 ]
  }, {
    "bufferView" : 9,
    "byteOffset" : 0,
    "componentType" : 5126,
    "count" : 61,
    "type" : "VEC3"
  }, {
    "bufferView" : 10,
    "byteOffset" : 0,
    "componentType" : 5126,
    "count" : 61,
    "type" : "VEC4"
  }, {
    "bufferView" : 11,
    "byteOffset" : 0,
    "componentType" : 5123,
    "count" : 720,
    "type" : "SCALAR"
  }, {
    "bufferView" : 12,
    "byteOffset" : 0,
    "componentType" : 5126,
    "count" : 179,
    "type" : "VEC3",
    "max" : [ 2.9948575, 3.2240648, 2.21383 ],
    "min" : [ -2.968246, 0.06609699, -2.21383 ]
  }, {
    "bufferView" : 13,
    "byteOffset" : 0,
    "componentType" : 5126,
    "count" : 179,
    "type" : "VEC3",
    "max" : [ 0.9950097, 0.9993957, 0.9898071 ],
    "min" : [ -0.9955501, -0.99664724, -0.9898072 ]
  }, {
    "bufferView" : 14,
    "byteOffset" : 0,
    "componentType" : 5126,
    "count" : 179,
    "type" : "VEC2"
  }, {
    "bufferView" : 15,
    "byteOffset" : 0,
    "componentType" : 5121,
    "count" : 179,
    "type" : "VEC4"
  }, {
    "bufferView" : 16,
    "byteOffset" : 0,
    "componentType" : 5126,
    "count" : 179,
    "type" : "VEC4"
  } ],
  "animations" : [ {
    "name" : "Stand_b",
    "channels" : [ {
      "sampler" : 0,
      "target" : {
        "node" : 1,
        "path" : "translation"
      }
    }, {
      "sampler" : 1,
      "target" : {
        "node" : 1,
        "path" : "rotation"
      }
    }, {
      "sampler" : 2,
      "target" : {
        "node" : 2,
        "path" : "translation"
      }
    }, {
      "sampler" : 3,
      "target" : {
        "node" : 2,
        "path" : "rotation"
      }
    } ],
    "samplers" : [ {
      "input" : 3,
      "interpolation" : "LINEAR",
      "output" : 1
    }, {
      "input" : 3,
      "interpolation" : "LINEAR",
      "output" : 2
    }, {
      "input" : 3,
      "interpolation" : "LINEAR",
      "output" : 4
    }, {
      "input" : 3,
      "interpolation" : "LINEAR",
      "output" : 5
    } ]
  }, {
    "name" : "Stand",
    "channels" : [ {
      "sampler" : 0,
      "target" : {
        "node" : 1,
        "path" : "translation"
      }
    }, {
      "sampler" : 1,
      "target" : {
        "node" : 1,
        "path" : "rotation"
      }
    }, {
      "sampler" : 2,
      "target" : {
        "node" : 2,
        "path" : "translation"
      }
    }, {
      "sampler" : 3,
      "target" : {
        "node" : 2,
        "path" : "rotation"
      }
    } ],
    "samplers" : [ {
      "input" : 8,
      "interpolation" : "LINEAR",
      "output" : 6
    }, {
      "input" : 8,
      "interpolation" : "LINEAR",
      "output" : 7
    }, {
      "input" : 8,
      "interpolation" : "LINEAR",
      "output" : 9
    }, {
      "input" : 8,
      "interpolation" : "LINEAR",
      "output" : 10
    } ]
  } ],
  "asset" : {
    "generator" : "2.0",
    "version" : "2.0"
  },
  "buffers" : [ {
    "uri" : "chicken.bin",
    "byteLength" : 15376
  } ],
  "bufferViews" : [ {
    "buffer" : 0,
    "byteOffset" : 15248,
    "byteLength" : 128
  }, {
    "buffer" : 0,
    "byteOffset" : 14888,
    "byteLength" : 180
  }, {
    "buffer" : 0,
    "byteOffset" : 14408,
    "byteLength" : 240
  }, {
    "buffer" : 0,
    "byteOffset" : 14164,
    "byteLength" : 60
  }, {
    "buffer" : 0,
    "byteOffset" : 15068,
    "byteLength" : 180
  }, {
    "buffer" : 0,
    "byteOffset" : 14648,
    "byteLength" : 240
  }, {
    "buffer" : 0,
    "byteOffset" : 11984,
    "byteLength" : 732
  }, {
    "buffer" : 0,
    "byteOffset" : 10032,
    "byteLength" : 976
  }, {
    "buffer" : 0,
    "byteOffset" : 14164,
    "byteLength" : 244
  }, {
    "buffer" : 0,
    "byteOffset" : 12716,
    "byteLength" : 732
  }, {
    "buffer" : 0,
    "byteOffset" : 11008,
    "byteLength" : 976
  }, {
    "buffer" : 0,
    "byteOffset" : 7160,
    "byteLength" : 1440,
    "target" : 34963
  }, {
    "buffer" : 0,
    "byteOffset" : 2864,
    "byteLength" : 2148,
    "target" : 34962
  }, {
    "buffer" : 0,
    "byteOffset" : 5012,
    "byteLength" : 2148,
    "target" : 34962
  }, {
    "buffer" : 0,
    "byteOffset" : 8600,
    "byteLength" : 1432,
    "target" : 34962
  }, {
    "buffer" : 0,
    "byteOffset" : 13448,
    "byteLength" : 716,
    "target" : 34962
  }, {
    "buffer" : 0,
    "byteOffset" : 0,
    "byteLength" : 2864,
    "target" : 34962
  } ],
  "images" : [ {
    "uri" : "chicken.png",
    "mimeType" : "image/png"
  } ],
  "materials" : [ {
    "name" : "Chicken",
    "pbrMetallicRoughness" : {
      "baseColorFactor" : [ 1.0, 1.0, 1.0, 1.0 ],
      "baseColorTexture" : {
        "index" : 0,
        "texCoord" : 0
      },
      "metallicFactor" : 0.0,
      "roughnessFactor" : 1.0
    },
    "emissiveFactor" : [ 0.0, 0.0, 0.0 ],
    "alphaMode" : "OPAQUE",
    "doubleSided" : false
  } ],
  "meshes" : [ {
    "primitives" : [ {
      "attributes" : {
        "POSITION" : 12,
        "NORMAL" : 13,
        "TEXCOORD_0" : 14,
        "JOINTS_0" : 15,
        "WEIGHTS_0" : 16
      },
      "indices" : 11,
      "material" : 0,
      "mode" : 4
    } ]
  } ],
  "nodes" : [ {
    "name" : "root",
    "children" : [ 1 ],
    "scale" : [ -0.1, 0.1, 0.1 ]
  }, {
    "name" : "Base",
    "children" : [ 2 ],
    "rotation" : [ 0.0, 0.0, -0.7071067, 0.70710677 ],
    "scale" : [ 1.0, 1.0, 1.0 ],
    "translation" : [ -0.0, 0.0, 0.0 ]
  }, {
    "name" : "Head",
    "rotation" : [ 0.0, 0.0, 0.0, 1.0 ],
    "scale" : [ 1.0, 1.0, 1.0 ],
    "translation" : [ -0.0, 4.041349, 0.0 ]
  }, {
    "name" : "Chicken",
    "skin" : 0,
    "mesh" : 0
  } ],
  "samplers" : [ {
    "magFilter" : 9729,
    "minFilter" : 9987,
    "wrapS" : 10497,
    "wrapT" : 10497
  } ],
  "scenes" : [ {
    "name" : "default scene",
    "nodes" : [ 0, 3 ]
  } ],
  "skins" : [ {
    "name" : "skin",
    "inverseBindMatrices" : 0,
    "joints" : [ 1, 2 ]
  } ],
  "textures" : [ {
    "sampler" : 0,
    "source" : 0
  } ]
}